# xmcd CD database file generated by Grip 3.2.0
# 
# Track frame offsets:
#       150
#       22425
#       36783
#       51593
#       58293
#       64480
#       98080
#       109823
#       112780
#       132608
#       164650
#       183835
#       186435
#       213663
# 
# Disc length: 3116 seconds
# 
# Revision: 11
# Processed by: cddbd v1.5.2PL0 Copyright (c) Steve Scherf et al.
# Submitted via: Grip 3.2.0
# 
DISCID=e20c2a0e
DTITLE=Pink Floyd - The Wall Live CD2
DYEAR=1981
DGENRE=Blues
TTITLE0=Hey You
TTITLE1=Is There Anybody Out There?
TTITLE2=Nobody Home
TTITLE3=Vera
TTITLE4=Bring The Boys Back Home
TTITLE5=Comfortably Numb
TTITLE6=The Show Must Go On
TTITLE7=Mc - Atmos
TTITLE8=In The Flesh
TTITLE9=Run Like Hell
TTITLE10=Waiting For The Worms
TTITLE11=Stop
TTITLE12=The Trial
TTITLE13=Outside The Wall
EXTD=
EXTT0=
EXTT1=
EXTT2=
EXTT3=
EXTT4=
EXTT5=
EXTT6=
EXTT7=
EXTT8=
EXTT9=
EXTT10=
EXTT11=
EXTT12=
EXTT13=
PLAYORDER=
